<mxfile host="app.diagrams.net" agent="Mozilla/5.0 (Windows NT 10.0; Win64; x64) AppleWebKit/537.36 (KHTML, like Gecko) Chrome/129.0.0.0 Safari/537.36" version="24.8.0">
  <diagram name="Page-1" id="OveQ7YPZgJFa75PUvUcG">
    <mxGraphModel dx="728" dy="599" grid="1" gridSize="10" guides="1" tooltips="1" connect="1" arrows="1" fold="1" page="1" pageScale="1" pageWidth="850" pageHeight="1100" math="0" shadow="0">
      <root>
        <mxCell id="0" />
        <mxCell id="1" parent="0" />
        <mxCell id="6-P5FYOCv_knJDz39_xE-108" value="" style="edgeStyle=none;shape=connector;rounded=0;jumpStyle=none;orthogonalLoop=1;jettySize=auto;html=1;strokeColor=default;strokeWidth=1;align=center;verticalAlign=middle;fontFamily=Helvetica;fontSize=11;fontColor=default;labelBackgroundColor=default;startArrow=none;startFill=0;endArrow=none;endFill=0;" edge="1" parent="1" source="6-P5FYOCv_knJDz39_xE-1" target="6-P5FYOCv_knJDz39_xE-109">
          <mxGeometry relative="1" as="geometry">
            <mxPoint x="668" y="480" as="targetPoint" />
          </mxGeometry>
        </mxCell>
        <mxCell id="6-P5FYOCv_knJDz39_xE-172" style="edgeStyle=none;shape=connector;rounded=0;jumpStyle=none;orthogonalLoop=1;jettySize=auto;html=1;exitX=1;exitY=0.75;exitDx=0;exitDy=0;strokeColor=default;strokeWidth=1;align=center;verticalAlign=middle;fontFamily=Helvetica;fontSize=11;fontColor=default;labelBackgroundColor=default;startArrow=none;startFill=0;endArrow=none;endFill=0;entryX=0;entryY=0.5;entryDx=0;entryDy=0;entryPerimeter=0;" edge="1" parent="1" source="6-P5FYOCv_knJDz39_xE-1" target="6-P5FYOCv_knJDz39_xE-144">
          <mxGeometry relative="1" as="geometry">
            <mxPoint x="1010" y="440" as="targetPoint" />
          </mxGeometry>
        </mxCell>
        <mxCell id="6-P5FYOCv_knJDz39_xE-1" value="КОРИСНИК" style="rounded=0;whiteSpace=wrap;html=1;fontFamily=Helvetica;fontSize=11;fontColor=default;labelBackgroundColor=default;" vertex="1" parent="1">
          <mxGeometry x="615" y="410" width="105" height="40" as="geometry" />
        </mxCell>
        <mxCell id="6-P5FYOCv_knJDz39_xE-20" style="edgeStyle=none;shape=connector;rounded=0;jumpStyle=none;orthogonalLoop=1;jettySize=auto;html=1;exitX=0.5;exitY=1;exitDx=0;exitDy=0;strokeColor=default;strokeWidth=1;align=center;verticalAlign=middle;fontFamily=Helvetica;fontSize=11;fontColor=default;labelBackgroundColor=default;startArrow=none;startFill=0;endArrow=none;endFill=0;" edge="1" parent="1" source="6-P5FYOCv_knJDz39_xE-2" target="6-P5FYOCv_knJDz39_xE-1">
          <mxGeometry relative="1" as="geometry" />
        </mxCell>
        <mxCell id="6-P5FYOCv_knJDz39_xE-2" value="презиме" style="ellipse;whiteSpace=wrap;html=1;rounded=1;" vertex="1" parent="1">
          <mxGeometry x="580" y="260" width="80" height="50" as="geometry" />
        </mxCell>
        <mxCell id="6-P5FYOCv_knJDz39_xE-22" style="edgeStyle=none;shape=connector;rounded=0;jumpStyle=none;orthogonalLoop=1;jettySize=auto;html=1;exitX=0.5;exitY=1;exitDx=0;exitDy=0;strokeColor=default;strokeWidth=1;align=center;verticalAlign=middle;fontFamily=Helvetica;fontSize=11;fontColor=default;labelBackgroundColor=default;startArrow=none;startFill=0;endArrow=none;endFill=0;" edge="1" parent="1" source="6-P5FYOCv_knJDz39_xE-4" target="6-P5FYOCv_knJDz39_xE-1">
          <mxGeometry relative="1" as="geometry" />
        </mxCell>
        <mxCell id="6-P5FYOCv_knJDz39_xE-4" value="датум_раѓање" style="ellipse;whiteSpace=wrap;html=1;rounded=1;" vertex="1" parent="1">
          <mxGeometry x="680" y="240" width="95" height="60" as="geometry" />
        </mxCell>
        <mxCell id="6-P5FYOCv_knJDz39_xE-23" style="edgeStyle=none;shape=connector;rounded=0;jumpStyle=none;orthogonalLoop=1;jettySize=auto;html=1;exitX=1;exitY=0.5;exitDx=0;exitDy=0;strokeColor=default;strokeWidth=1;align=center;verticalAlign=middle;fontFamily=Helvetica;fontSize=11;fontColor=default;labelBackgroundColor=default;startArrow=none;startFill=0;endArrow=none;endFill=0;" edge="1" parent="1" source="6-P5FYOCv_knJDz39_xE-6" target="6-P5FYOCv_knJDz39_xE-1">
          <mxGeometry relative="1" as="geometry" />
        </mxCell>
        <mxCell id="6-P5FYOCv_knJDz39_xE-6" value=" e-mail" style="ellipse;whiteSpace=wrap;html=1;rounded=1;" vertex="1" parent="1">
          <mxGeometry x="470" y="350" width="75" height="40" as="geometry" />
        </mxCell>
        <mxCell id="6-P5FYOCv_knJDz39_xE-21" style="edgeStyle=none;shape=connector;rounded=0;jumpStyle=none;orthogonalLoop=1;jettySize=auto;html=1;exitX=0.5;exitY=1;exitDx=0;exitDy=0;strokeColor=default;strokeWidth=1;align=center;verticalAlign=middle;fontFamily=Helvetica;fontSize=11;fontColor=default;labelBackgroundColor=default;startArrow=none;startFill=0;endArrow=none;endFill=0;entryX=0.5;entryY=0;entryDx=0;entryDy=0;" edge="1" parent="1" source="6-P5FYOCv_knJDz39_xE-9" target="6-P5FYOCv_knJDz39_xE-1">
          <mxGeometry relative="1" as="geometry">
            <mxPoint x="730" y="380" as="targetPoint" />
          </mxGeometry>
        </mxCell>
        <mxCell id="6-P5FYOCv_knJDz39_xE-9" value="име" style="ellipse;whiteSpace=wrap;html=1;rounded=1;" vertex="1" parent="1">
          <mxGeometry x="645" y="320" width="60" height="40" as="geometry" />
        </mxCell>
        <mxCell id="6-P5FYOCv_knJDz39_xE-11" value="&lt;u data-l-s=&quot;37460&quot;&gt;корисничко_име&lt;/u&gt;" style="ellipse;whiteSpace=wrap;html=1;rounded=1;" vertex="1" parent="1">
          <mxGeometry x="460" y="280" width="105" height="50" as="geometry" />
        </mxCell>
        <mxCell id="6-P5FYOCv_knJDz39_xE-24" style="edgeStyle=none;shape=connector;rounded=0;jumpStyle=none;orthogonalLoop=1;jettySize=auto;html=1;exitX=0;exitY=1;exitDx=0;exitDy=0;strokeColor=default;strokeWidth=1;align=center;verticalAlign=middle;fontFamily=Helvetica;fontSize=11;fontColor=default;labelBackgroundColor=default;startArrow=none;startFill=0;endArrow=none;endFill=0;" edge="1" parent="1" source="6-P5FYOCv_knJDz39_xE-13" target="6-P5FYOCv_knJDz39_xE-1">
          <mxGeometry relative="1" as="geometry" />
        </mxCell>
        <mxCell id="6-P5FYOCv_knJDz39_xE-13" value="датум_регистрација" style="ellipse;whiteSpace=wrap;html=1;rounded=1;" vertex="1" parent="1">
          <mxGeometry x="735" y="310" width="130" height="50" as="geometry" />
        </mxCell>
        <mxCell id="6-P5FYOCv_knJDz39_xE-15" value=" пол" style="ellipse;whiteSpace=wrap;html=1;rounded=1;" vertex="1" parent="1">
          <mxGeometry x="750" y="380" width="65" height="40" as="geometry" />
        </mxCell>
        <mxCell id="6-P5FYOCv_knJDz39_xE-19" style="rounded=0;orthogonalLoop=1;jettySize=auto;html=1;endArrow=none;endFill=0;strokeColor=default;startArrow=none;startFill=0;strokeWidth=1;jumpStyle=none;" edge="1" parent="1" source="6-P5FYOCv_knJDz39_xE-11" target="6-P5FYOCv_knJDz39_xE-1">
          <mxGeometry relative="1" as="geometry">
            <mxPoint x="479.99640687119296" y="370.0042712474618" as="sourcePoint" />
            <mxPoint x="588.25" y="483.4" as="targetPoint" />
          </mxGeometry>
        </mxCell>
        <mxCell id="6-P5FYOCv_knJDz39_xE-25" style="edgeStyle=none;shape=connector;rounded=0;jumpStyle=none;orthogonalLoop=1;jettySize=auto;html=1;exitX=1;exitY=1;exitDx=0;exitDy=0;strokeColor=default;strokeWidth=1;align=center;verticalAlign=middle;fontFamily=Helvetica;fontSize=11;fontColor=default;labelBackgroundColor=default;startArrow=none;startFill=0;endArrow=none;endFill=0;" edge="1" parent="1" source="6-P5FYOCv_knJDz39_xE-15" target="6-P5FYOCv_knJDz39_xE-15">
          <mxGeometry relative="1" as="geometry" />
        </mxCell>
        <mxCell id="6-P5FYOCv_knJDz39_xE-26" style="edgeStyle=none;shape=connector;rounded=0;jumpStyle=none;orthogonalLoop=1;jettySize=auto;html=1;exitX=0;exitY=1;exitDx=0;exitDy=0;entryX=1;entryY=0.5;entryDx=0;entryDy=0;strokeColor=default;strokeWidth=1;align=center;verticalAlign=middle;fontFamily=Helvetica;fontSize=11;fontColor=default;labelBackgroundColor=default;startArrow=none;startFill=0;endArrow=none;endFill=0;" edge="1" parent="1" source="6-P5FYOCv_knJDz39_xE-15" target="6-P5FYOCv_knJDz39_xE-1">
          <mxGeometry relative="1" as="geometry" />
        </mxCell>
        <mxCell id="6-P5FYOCv_knJDz39_xE-44" value="ОБЈЕКТ" style="rounded=0;whiteSpace=wrap;html=1;fontFamily=Helvetica;fontSize=11;fontColor=default;labelBackgroundColor=default;" vertex="1" parent="1">
          <mxGeometry x="440" y="906.13" width="100" height="40" as="geometry" />
        </mxCell>
        <mxCell id="6-P5FYOCv_knJDz39_xE-45" style="edgeStyle=none;shape=connector;rounded=0;jumpStyle=none;orthogonalLoop=1;jettySize=auto;html=1;exitX=0.5;exitY=1;exitDx=0;exitDy=0;strokeColor=default;strokeWidth=1;align=center;verticalAlign=middle;fontFamily=Helvetica;fontSize=11;fontColor=default;labelBackgroundColor=default;startArrow=none;startFill=0;endArrow=none;endFill=0;" edge="1" parent="1" source="6-P5FYOCv_knJDz39_xE-60" target="6-P5FYOCv_knJDz39_xE-44">
          <mxGeometry relative="1" as="geometry">
            <mxPoint x="443" y="748.1300000000001" as="sourcePoint" />
          </mxGeometry>
        </mxCell>
        <mxCell id="6-P5FYOCv_knJDz39_xE-47" style="edgeStyle=none;shape=connector;rounded=0;jumpStyle=none;orthogonalLoop=1;jettySize=auto;html=1;exitX=0.5;exitY=1;exitDx=0;exitDy=0;strokeColor=default;strokeWidth=1;align=center;verticalAlign=middle;fontFamily=Helvetica;fontSize=11;fontColor=default;labelBackgroundColor=default;startArrow=none;startFill=0;endArrow=none;endFill=0;" edge="1" parent="1" source="6-P5FYOCv_knJDz39_xE-48" target="6-P5FYOCv_knJDz39_xE-44">
          <mxGeometry relative="1" as="geometry" />
        </mxCell>
        <mxCell id="6-P5FYOCv_knJDz39_xE-48" value="адреса" style="ellipse;whiteSpace=wrap;html=1;rounded=1;" vertex="1" parent="1">
          <mxGeometry x="465" y="1006.13" width="95" height="60" as="geometry" />
        </mxCell>
        <mxCell id="6-P5FYOCv_knJDz39_xE-51" style="edgeStyle=none;shape=connector;rounded=0;jumpStyle=none;orthogonalLoop=1;jettySize=auto;html=1;exitX=0.5;exitY=1;exitDx=0;exitDy=0;strokeColor=default;strokeWidth=1;align=center;verticalAlign=middle;fontFamily=Helvetica;fontSize=11;fontColor=default;labelBackgroundColor=default;startArrow=none;startFill=0;endArrow=none;endFill=0;entryX=1;entryY=1;entryDx=0;entryDy=0;" edge="1" parent="1" source="6-P5FYOCv_knJDz39_xE-52" target="6-P5FYOCv_knJDz39_xE-44">
          <mxGeometry relative="1" as="geometry">
            <mxPoint x="553" y="816.13" as="targetPoint" />
          </mxGeometry>
        </mxCell>
        <mxCell id="6-P5FYOCv_knJDz39_xE-52" value="име" style="ellipse;whiteSpace=wrap;html=1;rounded=1;" vertex="1" parent="1">
          <mxGeometry x="565" y="986.13" width="60" height="40" as="geometry" />
        </mxCell>
        <mxCell id="6-P5FYOCv_knJDz39_xE-62" value="" style="edgeStyle=none;shape=connector;rounded=0;jumpStyle=none;orthogonalLoop=1;jettySize=auto;html=1;strokeColor=default;strokeWidth=1;align=center;verticalAlign=middle;fontFamily=Helvetica;fontSize=11;fontColor=default;labelBackgroundColor=default;startArrow=none;startFill=0;endArrow=none;endFill=0;" edge="1" parent="1" source="6-P5FYOCv_knJDz39_xE-53" target="6-P5FYOCv_knJDz39_xE-61">
          <mxGeometry relative="1" as="geometry" />
        </mxCell>
        <mxCell id="6-P5FYOCv_knJDz39_xE-64" value="" style="edgeStyle=none;shape=connector;rounded=0;jumpStyle=none;orthogonalLoop=1;jettySize=auto;html=1;strokeColor=default;strokeWidth=1;align=center;verticalAlign=middle;fontFamily=Helvetica;fontSize=11;fontColor=default;labelBackgroundColor=default;startArrow=none;startFill=0;endArrow=none;endFill=0;" edge="1" parent="1" source="6-P5FYOCv_knJDz39_xE-53">
          <mxGeometry relative="1" as="geometry">
            <mxPoint x="200.99440939473357" y="1028.9800242651845" as="targetPoint" />
          </mxGeometry>
        </mxCell>
        <mxCell id="6-P5FYOCv_knJDz39_xE-53" value="&lt;u data-l-s=&quot;89909&quot;&gt;географска_локација&lt;/u&gt;" style="ellipse;whiteSpace=wrap;html=1;rounded=1;" vertex="1" parent="1">
          <mxGeometry x="200" y="956.13" width="138" height="50" as="geometry" />
        </mxCell>
        <mxCell id="6-P5FYOCv_knJDz39_xE-57" style="rounded=0;orthogonalLoop=1;jettySize=auto;html=1;endArrow=none;endFill=0;strokeColor=default;startArrow=none;startFill=0;strokeWidth=1;jumpStyle=none;" edge="1" parent="1" source="6-P5FYOCv_knJDz39_xE-53" target="6-P5FYOCv_knJDz39_xE-44">
          <mxGeometry relative="1" as="geometry">
            <mxPoint x="302.99640687119296" y="806.1342712474618" as="sourcePoint" />
            <mxPoint x="411.25000000000006" y="919.53" as="targetPoint" />
          </mxGeometry>
        </mxCell>
        <mxCell id="6-P5FYOCv_knJDz39_xE-58" style="edgeStyle=none;shape=connector;rounded=0;jumpStyle=none;orthogonalLoop=1;jettySize=auto;html=1;exitX=1;exitY=1;exitDx=0;exitDy=0;strokeColor=default;strokeWidth=1;align=center;verticalAlign=middle;fontFamily=Helvetica;fontSize=11;fontColor=default;labelBackgroundColor=default;startArrow=none;startFill=0;endArrow=none;endFill=0;" edge="1" parent="1">
          <mxGeometry relative="1" as="geometry">
            <mxPoint x="973.4809703885628" y="1086.4021356237308" as="sourcePoint" />
            <mxPoint x="973.9104069384762" y="1086.1328337413192" as="targetPoint" />
          </mxGeometry>
        </mxCell>
        <mxCell id="6-P5FYOCv_knJDz39_xE-60" value="тип" style="ellipse;shape=doubleEllipse;margin=3;whiteSpace=wrap;html=1;align=center;rounded=1;fontFamily=Helvetica;fontSize=11;fontColor=default;labelBackgroundColor=default;" vertex="1" parent="1">
          <mxGeometry x="355" y="986.13" width="100" height="40" as="geometry" />
        </mxCell>
        <mxCell id="6-P5FYOCv_knJDz39_xE-61" value="&lt;span data-l-s=&quot;22477&quot;&gt;географска_ширина&lt;/span&gt;" style="ellipse;whiteSpace=wrap;html=1;rounded=1;" vertex="1" parent="1">
          <mxGeometry x="40" y="956.13" width="138" height="50" as="geometry" />
        </mxCell>
        <mxCell id="6-P5FYOCv_knJDz39_xE-63" value="&lt;span data-l-s=&quot;16275&quot;&gt;географска_должина&lt;/span&gt;" style="ellipse;whiteSpace=wrap;html=1;rounded=1;" vertex="1" parent="1">
          <mxGeometry x="90" y="1026.13" width="138" height="50" as="geometry" />
        </mxCell>
        <mxCell id="6-P5FYOCv_knJDz39_xE-66" value="ГРАД" style="rounded=0;whiteSpace=wrap;html=1;fontFamily=Helvetica;fontSize=11;fontColor=default;labelBackgroundColor=default;" vertex="1" parent="1">
          <mxGeometry x="785" y="906.13" width="100" height="40" as="geometry" />
        </mxCell>
        <mxCell id="6-P5FYOCv_knJDz39_xE-68" style="edgeStyle=none;shape=connector;rounded=0;jumpStyle=none;orthogonalLoop=1;jettySize=auto;html=1;exitX=0.5;exitY=1;exitDx=0;exitDy=0;strokeColor=default;strokeWidth=1;align=center;verticalAlign=middle;fontFamily=Helvetica;fontSize=11;fontColor=default;labelBackgroundColor=default;startArrow=none;startFill=0;endArrow=none;endFill=0;entryX=0.117;entryY=0.975;entryDx=0;entryDy=0;entryPerimeter=0;" edge="1" parent="1" source="6-P5FYOCv_knJDz39_xE-69" target="6-P5FYOCv_knJDz39_xE-66">
          <mxGeometry relative="1" as="geometry" />
        </mxCell>
        <mxCell id="6-P5FYOCv_knJDz39_xE-69" value="државата" style="ellipse;whiteSpace=wrap;html=1;rounded=1;" vertex="1" parent="1">
          <mxGeometry x="720" y="1012.26" width="95" height="60" as="geometry" />
        </mxCell>
        <mxCell id="6-P5FYOCv_knJDz39_xE-70" style="edgeStyle=none;shape=connector;rounded=0;jumpStyle=none;orthogonalLoop=1;jettySize=auto;html=1;exitX=0.5;exitY=0;exitDx=0;exitDy=0;strokeColor=default;strokeWidth=1;align=center;verticalAlign=middle;fontFamily=Helvetica;fontSize=11;fontColor=default;labelBackgroundColor=default;startArrow=none;startFill=0;endArrow=none;endFill=0;" edge="1" parent="1" target="6-P5FYOCv_knJDz39_xE-66">
          <mxGeometry relative="1" as="geometry">
            <mxPoint x="898" y="816.13" as="targetPoint" />
            <mxPoint x="870" y="1049.9999999999998" as="sourcePoint" />
          </mxGeometry>
        </mxCell>
        <mxCell id="6-P5FYOCv_knJDz39_xE-77" value="&lt;u&gt;име&lt;/u&gt;" style="ellipse;whiteSpace=wrap;html=1;rounded=1;" vertex="1" parent="1">
          <mxGeometry x="840" y="1010" width="60" height="40" as="geometry" />
        </mxCell>
        <mxCell id="6-P5FYOCv_knJDz39_xE-100" style="edgeStyle=none;shape=connector;rounded=0;jumpStyle=none;orthogonalLoop=1;jettySize=auto;html=1;exitX=0.772;exitY=0.354;exitDx=0;exitDy=0;exitPerimeter=0;entryX=0;entryY=0.5;entryDx=0;entryDy=0;strokeColor=default;strokeWidth=1;align=center;verticalAlign=middle;fontFamily=Helvetica;fontSize=11;fontColor=default;labelBackgroundColor=default;startArrow=none;startFill=0;endArrow=none;endFill=0;" edge="1" parent="1" source="6-P5FYOCv_knJDz39_xE-78" target="6-P5FYOCv_knJDz39_xE-98">
          <mxGeometry relative="1" as="geometry" />
        </mxCell>
        <mxCell id="6-P5FYOCv_knJDz39_xE-78" value="сосед" style="strokeWidth=1;html=1;shape=mxgraph.flowchart.decision;whiteSpace=wrap;rounded=1;fontFamily=Helvetica;fontSize=11;fontColor=default;labelBackgroundColor=default;" vertex="1" parent="1">
          <mxGeometry x="985" y="896.13" width="65" height="60" as="geometry" />
        </mxCell>
        <mxCell id="6-P5FYOCv_knJDz39_xE-80" style="edgeStyle=none;shape=connector;rounded=0;jumpStyle=none;orthogonalLoop=1;jettySize=auto;html=1;exitX=1;exitY=0;exitDx=0;exitDy=0;entryX=0.5;entryY=0;entryDx=0;entryDy=0;entryPerimeter=0;strokeColor=default;strokeWidth=1;align=center;verticalAlign=middle;fontFamily=Helvetica;fontSize=11;fontColor=default;labelBackgroundColor=default;startArrow=none;startFill=0;endArrow=none;endFill=0;" edge="1" parent="1" source="6-P5FYOCv_knJDz39_xE-66" target="6-P5FYOCv_knJDz39_xE-78">
          <mxGeometry relative="1" as="geometry">
            <mxPoint x="1155" y="906.13" as="sourcePoint" />
          </mxGeometry>
        </mxCell>
        <mxCell id="6-P5FYOCv_knJDz39_xE-82" style="edgeStyle=none;shape=connector;rounded=0;jumpStyle=none;orthogonalLoop=1;jettySize=auto;html=1;entryX=0.5;entryY=1;entryDx=0;entryDy=0;entryPerimeter=0;strokeColor=default;strokeWidth=1;align=center;verticalAlign=middle;fontFamily=Helvetica;fontSize=11;fontColor=default;labelBackgroundColor=default;startArrow=none;startFill=0;endArrow=none;endFill=0;exitX=1;exitY=1;exitDx=0;exitDy=0;" edge="1" parent="1" source="6-P5FYOCv_knJDz39_xE-66" target="6-P5FYOCv_knJDz39_xE-78">
          <mxGeometry relative="1" as="geometry">
            <mxPoint x="955" y="986.13" as="sourcePoint" />
          </mxGeometry>
        </mxCell>
        <mxCell id="6-P5FYOCv_knJDz39_xE-86" value="" style="edgeStyle=none;shape=connector;rounded=0;jumpStyle=none;orthogonalLoop=1;jettySize=auto;html=1;strokeColor=default;strokeWidth=1;align=center;verticalAlign=middle;fontFamily=Helvetica;fontSize=11;fontColor=default;labelBackgroundColor=default;startArrow=none;startFill=0;endArrow=none;endFill=0;" edge="1" parent="1" source="6-P5FYOCv_knJDz39_xE-85" target="6-P5FYOCv_knJDz39_xE-66">
          <mxGeometry relative="1" as="geometry" />
        </mxCell>
        <mxCell id="6-P5FYOCv_knJDz39_xE-87" value="" style="edgeStyle=none;shape=link;rounded=0;jumpStyle=none;orthogonalLoop=1;jettySize=auto;html=1;strokeColor=default;strokeWidth=1;align=center;verticalAlign=middle;fontFamily=Helvetica;fontSize=11;fontColor=default;labelBackgroundColor=default;startArrow=none;startFill=0;endArrow=none;endFill=0;" edge="1" parent="1" source="6-P5FYOCv_knJDz39_xE-85" target="6-P5FYOCv_knJDz39_xE-44">
          <mxGeometry relative="1" as="geometry" />
        </mxCell>
        <mxCell id="6-P5FYOCv_knJDz39_xE-85" value="припаѓа" style="strokeWidth=1;html=1;shape=mxgraph.flowchart.decision;whiteSpace=wrap;rounded=1;fontFamily=Helvetica;fontSize=11;fontColor=default;labelBackgroundColor=default;" vertex="1" parent="1">
          <mxGeometry x="640" y="896.13" width="65" height="60" as="geometry" />
        </mxCell>
        <mxCell id="6-P5FYOCv_knJDz39_xE-88" value="m" style="text;html=1;align=center;verticalAlign=middle;whiteSpace=wrap;rounded=0;fontFamily=Helvetica;fontSize=11;fontColor=default;labelBackgroundColor=default;" vertex="1" parent="1">
          <mxGeometry x="741.25" y="926.13" width="60" height="30" as="geometry" />
        </mxCell>
        <mxCell id="6-P5FYOCv_knJDz39_xE-89" value="1" style="text;html=1;align=center;verticalAlign=middle;whiteSpace=wrap;rounded=0;fontFamily=Helvetica;fontSize=11;fontColor=default;labelBackgroundColor=default;" vertex="1" parent="1">
          <mxGeometry x="530" y="926.13" width="60" height="30" as="geometry" />
        </mxCell>
        <mxCell id="6-P5FYOCv_knJDz39_xE-90" value="m" style="text;html=1;align=center;verticalAlign=middle;whiteSpace=wrap;rounded=0;fontFamily=Helvetica;fontSize=11;fontColor=default;labelBackgroundColor=default;" vertex="1" parent="1">
          <mxGeometry x="970" y="956.13" width="60" height="30" as="geometry" />
        </mxCell>
        <mxCell id="6-P5FYOCv_knJDz39_xE-91" value="n" style="text;html=1;align=center;verticalAlign=middle;whiteSpace=wrap;rounded=0;fontFamily=Helvetica;fontSize=11;fontColor=default;labelBackgroundColor=default;" vertex="1" parent="1">
          <mxGeometry x="860" y="880" width="60" height="30" as="geometry" />
        </mxCell>
        <mxCell id="6-P5FYOCv_knJDz39_xE-125" style="edgeStyle=none;shape=connector;rounded=0;jumpStyle=none;orthogonalLoop=1;jettySize=auto;html=1;exitX=0.5;exitY=0;exitDx=0;exitDy=0;strokeColor=default;strokeWidth=1;align=center;verticalAlign=middle;fontFamily=Helvetica;fontSize=11;fontColor=default;labelBackgroundColor=default;startArrow=none;startFill=0;endArrow=none;endFill=0;entryX=0.5;entryY=1;entryDx=0;entryDy=0;entryPerimeter=0;" edge="1" parent="1" source="6-P5FYOCv_knJDz39_xE-95" target="6-P5FYOCv_knJDz39_xE-123">
          <mxGeometry relative="1" as="geometry" />
        </mxCell>
        <mxCell id="6-P5FYOCv_knJDz39_xE-95" value="ТУРИСТИЧКО_МЕСТО" style="shape=ext;margin=3;double=1;whiteSpace=wrap;html=1;align=center;rounded=1;strokeColor=default;strokeWidth=1;verticalAlign=middle;fontFamily=Helvetica;fontSize=11;fontColor=default;labelBackgroundColor=default;fillColor=default;arcSize=0;" vertex="1" parent="1">
          <mxGeometry x="538.75" y="740" width="262.5" height="40" as="geometry" />
        </mxCell>
        <mxCell id="6-P5FYOCv_knJDz39_xE-101" style="edgeStyle=none;shape=connector;rounded=0;jumpStyle=none;orthogonalLoop=1;jettySize=auto;html=1;entryX=0.5;entryY=0;entryDx=0;entryDy=0;strokeColor=default;strokeWidth=1;align=center;verticalAlign=middle;fontFamily=Helvetica;fontSize=11;fontColor=default;labelBackgroundColor=default;startArrow=none;startFill=0;endArrow=none;endFill=0;" edge="1" parent="1" source="6-P5FYOCv_knJDz39_xE-97" target="6-P5FYOCv_knJDz39_xE-66">
          <mxGeometry relative="1" as="geometry" />
        </mxCell>
        <mxCell id="6-P5FYOCv_knJDz39_xE-102" style="edgeStyle=none;shape=connector;rounded=0;jumpStyle=none;orthogonalLoop=1;jettySize=auto;html=1;exitX=0;exitY=1;exitDx=0;exitDy=0;entryX=0.5;entryY=0;entryDx=0;entryDy=0;strokeColor=default;strokeWidth=1;align=center;verticalAlign=middle;fontFamily=Helvetica;fontSize=11;fontColor=default;labelBackgroundColor=default;startArrow=none;startFill=0;endArrow=none;endFill=0;" edge="1" parent="1" source="6-P5FYOCv_knJDz39_xE-97" target="6-P5FYOCv_knJDz39_xE-44">
          <mxGeometry relative="1" as="geometry" />
        </mxCell>
        <mxCell id="6-P5FYOCv_knJDz39_xE-103" style="edgeStyle=none;shape=connector;rounded=0;jumpStyle=none;orthogonalLoop=1;jettySize=auto;html=1;exitX=0.5;exitY=0;exitDx=0;exitDy=0;strokeColor=default;strokeWidth=1;align=center;verticalAlign=middle;fontFamily=Helvetica;fontSize=11;fontColor=default;labelBackgroundColor=default;startArrow=none;startFill=0;endArrow=none;endFill=0;" edge="1" parent="1" source="6-P5FYOCv_knJDz39_xE-97" target="6-P5FYOCv_knJDz39_xE-95">
          <mxGeometry relative="1" as="geometry" />
        </mxCell>
        <mxCell id="6-P5FYOCv_knJDz39_xE-97" value="E" style="shape=rhombus;double=1;perimeter=rhombusPerimeter;whiteSpace=wrap;html=1;align=center;rounded=1;strokeColor=default;strokeWidth=1;verticalAlign=middle;fontFamily=Helvetica;fontSize=11;fontColor=default;labelBackgroundColor=default;fillColor=default;" vertex="1" parent="1">
          <mxGeometry x="627.5" y="820" width="90" height="40" as="geometry" />
        </mxCell>
        <mxCell id="6-P5FYOCv_knJDz39_xE-98" value="растојание" style="ellipse;whiteSpace=wrap;html=1;rounded=1;" vertex="1" parent="1">
          <mxGeometry x="1080" y="875" width="80" height="35" as="geometry" />
        </mxCell>
        <mxCell id="6-P5FYOCv_knJDz39_xE-104" value="1" style="text;html=1;align=center;verticalAlign=middle;whiteSpace=wrap;rounded=0;fontFamily=Helvetica;fontSize=11;fontColor=default;labelBackgroundColor=default;" vertex="1" parent="1">
          <mxGeometry x="455" y="880" width="60" height="30" as="geometry" />
        </mxCell>
        <mxCell id="6-P5FYOCv_knJDz39_xE-105" value="1" style="text;html=1;align=center;verticalAlign=middle;whiteSpace=wrap;rounded=0;fontFamily=Helvetica;fontSize=11;fontColor=default;labelBackgroundColor=default;" vertex="1" parent="1">
          <mxGeometry x="760" y="880" width="60" height="30" as="geometry" />
        </mxCell>
        <mxCell id="6-P5FYOCv_knJDz39_xE-106" value="1" style="text;html=1;align=center;verticalAlign=middle;whiteSpace=wrap;rounded=0;fontFamily=Helvetica;fontSize=11;fontColor=default;labelBackgroundColor=default;" vertex="1" parent="1">
          <mxGeometry x="627.5" y="780" width="60" height="30" as="geometry" />
        </mxCell>
        <mxCell id="6-P5FYOCv_knJDz39_xE-107" value="ЛИСТА" style="rounded=0;whiteSpace=wrap;html=1;fontFamily=Helvetica;fontSize=11;fontColor=default;labelBackgroundColor=default;" vertex="1" parent="1">
          <mxGeometry x="615" y="580" width="105" height="40" as="geometry" />
        </mxCell>
        <mxCell id="6-P5FYOCv_knJDz39_xE-110" value="" style="edgeStyle=none;shape=connector;rounded=0;jumpStyle=none;orthogonalLoop=1;jettySize=auto;html=1;strokeColor=default;strokeWidth=1;align=center;verticalAlign=middle;fontFamily=Helvetica;fontSize=11;fontColor=default;labelBackgroundColor=default;startArrow=none;startFill=0;endArrow=none;endFill=0;" edge="1" parent="1" source="6-P5FYOCv_knJDz39_xE-109" target="6-P5FYOCv_knJDz39_xE-107">
          <mxGeometry relative="1" as="geometry" />
        </mxCell>
        <mxCell id="6-P5FYOCv_knJDz39_xE-109" value="креира" style="strokeWidth=1;html=1;shape=mxgraph.flowchart.decision;whiteSpace=wrap;rounded=1;fontFamily=Helvetica;fontSize=11;fontColor=default;labelBackgroundColor=default;" vertex="1" parent="1">
          <mxGeometry x="635" y="480" width="65" height="60" as="geometry" />
        </mxCell>
        <mxCell id="6-P5FYOCv_knJDz39_xE-112" value="&lt;span style=&quot;color: rgb(0, 0, 0); font-family: Helvetica; font-size: 11px; font-style: normal; font-variant-ligatures: normal; font-variant-caps: normal; font-weight: 400; letter-spacing: normal; orphans: 2; text-align: center; text-indent: 0px; text-transform: none; widows: 2; word-spacing: 0px; -webkit-text-stroke-width: 0px; white-space: normal; background-color: rgb(255, 255, 255); text-decoration-thickness: initial; text-decoration-style: initial; text-decoration-color: initial; display: inline !important; float: none;&quot;&gt;n&lt;/span&gt;" style="text;whiteSpace=wrap;html=1;fontFamily=Helvetica;fontSize=11;fontColor=default;labelBackgroundColor=default;" vertex="1" parent="1">
          <mxGeometry x="672.5" y="450" width="40" height="40" as="geometry" />
        </mxCell>
        <mxCell id="6-P5FYOCv_knJDz39_xE-116" style="edgeStyle=none;shape=connector;rounded=0;jumpStyle=none;orthogonalLoop=1;jettySize=auto;html=1;exitX=0;exitY=0.5;exitDx=0;exitDy=0;strokeColor=default;strokeWidth=1;align=center;verticalAlign=middle;fontFamily=Helvetica;fontSize=11;fontColor=default;labelBackgroundColor=default;startArrow=none;startFill=0;endArrow=none;endFill=0;entryX=0.751;entryY=0.23;entryDx=0;entryDy=0;entryPerimeter=0;" edge="1" parent="1" source="6-P5FYOCv_knJDz39_xE-113" target="6-P5FYOCv_knJDz39_xE-109">
          <mxGeometry relative="1" as="geometry" />
        </mxCell>
        <mxCell id="6-P5FYOCv_knJDz39_xE-113" value="датум_споделување" style="ellipse;whiteSpace=wrap;html=1;rounded=1;" vertex="1" parent="1">
          <mxGeometry x="730" y="460" width="130" height="50" as="geometry" />
        </mxCell>
        <mxCell id="6-P5FYOCv_knJDz39_xE-117" value="коментар" style="ellipse;whiteSpace=wrap;html=1;rounded=1;" vertex="1" parent="1">
          <mxGeometry x="743.75" y="520" width="75" height="30" as="geometry" />
        </mxCell>
        <mxCell id="6-P5FYOCv_knJDz39_xE-122" style="edgeStyle=none;shape=connector;rounded=0;jumpStyle=none;orthogonalLoop=1;jettySize=auto;html=1;exitX=0;exitY=0.5;exitDx=0;exitDy=0;entryX=0.74;entryY=0.758;entryDx=0;entryDy=0;entryPerimeter=0;strokeColor=default;strokeWidth=1;align=center;verticalAlign=middle;fontFamily=Helvetica;fontSize=11;fontColor=default;labelBackgroundColor=default;startArrow=none;startFill=0;endArrow=none;endFill=0;" edge="1" parent="1" source="6-P5FYOCv_knJDz39_xE-117" target="6-P5FYOCv_knJDz39_xE-109">
          <mxGeometry relative="1" as="geometry" />
        </mxCell>
        <mxCell id="6-P5FYOCv_knJDz39_xE-123" value="е дел од" style="strokeWidth=1;html=1;shape=mxgraph.flowchart.decision;whiteSpace=wrap;rounded=1;fontFamily=Helvetica;fontSize=11;fontColor=default;labelBackgroundColor=default;" vertex="1" parent="1">
          <mxGeometry x="635" y="650" width="65" height="60" as="geometry" />
        </mxCell>
        <mxCell id="6-P5FYOCv_knJDz39_xE-124" style="edgeStyle=none;shape=connector;rounded=0;jumpStyle=none;orthogonalLoop=1;jettySize=auto;html=1;exitX=0.5;exitY=1;exitDx=0;exitDy=0;entryX=0.5;entryY=0;entryDx=0;entryDy=0;entryPerimeter=0;strokeColor=default;strokeWidth=1;align=center;verticalAlign=middle;fontFamily=Helvetica;fontSize=11;fontColor=default;labelBackgroundColor=default;startArrow=none;startFill=0;endArrow=none;endFill=0;" edge="1" parent="1" source="6-P5FYOCv_knJDz39_xE-107" target="6-P5FYOCv_knJDz39_xE-123">
          <mxGeometry relative="1" as="geometry" />
        </mxCell>
        <mxCell id="6-P5FYOCv_knJDz39_xE-126" value="m" style="text;html=1;align=center;verticalAlign=middle;whiteSpace=wrap;rounded=0;fontFamily=Helvetica;fontSize=11;fontColor=default;labelBackgroundColor=default;" vertex="1" parent="1">
          <mxGeometry x="657.5" y="550" width="60" height="30" as="geometry" />
        </mxCell>
        <mxCell id="6-P5FYOCv_knJDz39_xE-127" value="m" style="text;html=1;align=center;verticalAlign=middle;whiteSpace=wrap;rounded=0;fontFamily=Helvetica;fontSize=11;fontColor=default;labelBackgroundColor=default;" vertex="1" parent="1">
          <mxGeometry x="657.5" y="620" width="60" height="30" as="geometry" />
        </mxCell>
        <mxCell id="6-P5FYOCv_knJDz39_xE-129" value="n" style="text;html=1;align=center;verticalAlign=middle;whiteSpace=wrap;rounded=0;fontFamily=Helvetica;fontSize=11;fontColor=default;labelBackgroundColor=default;" vertex="1" parent="1">
          <mxGeometry x="662.5" y="710" width="60" height="30" as="geometry" />
        </mxCell>
        <mxCell id="6-P5FYOCv_knJDz39_xE-143" value="" style="edgeStyle=none;shape=link;rounded=0;jumpStyle=none;orthogonalLoop=1;jettySize=auto;html=1;strokeColor=default;strokeWidth=1;align=center;verticalAlign=middle;fontFamily=Helvetica;fontSize=11;fontColor=default;labelBackgroundColor=default;startArrow=none;startFill=0;endArrow=none;endFill=0;entryX=1;entryY=0.5;entryDx=0;entryDy=0;entryPerimeter=0;" edge="1" parent="1" source="6-P5FYOCv_knJDz39_xE-131" target="6-P5FYOCv_knJDz39_xE-145">
          <mxGeometry relative="1" as="geometry">
            <mxPoint x="1333.25" y="742.5" as="targetPoint" />
          </mxGeometry>
        </mxCell>
        <mxCell id="6-P5FYOCv_knJDz39_xE-131" value="АГЕНЦИЈА" style="rounded=0;whiteSpace=wrap;html=1;fontFamily=Helvetica;fontSize=11;fontColor=default;labelBackgroundColor=default;" vertex="1" parent="1">
          <mxGeometry x="1343.25" y="647.5" width="105" height="40" as="geometry" />
        </mxCell>
        <mxCell id="6-P5FYOCv_knJDz39_xE-135" style="edgeStyle=none;shape=connector;rounded=0;jumpStyle=none;orthogonalLoop=1;jettySize=auto;html=1;exitX=0;exitY=0.5;exitDx=0;exitDy=0;strokeColor=default;strokeWidth=1;align=center;verticalAlign=middle;fontFamily=Helvetica;fontSize=11;fontColor=default;labelBackgroundColor=default;startArrow=none;startFill=0;endArrow=none;endFill=0;entryX=0.75;entryY=1;entryDx=0;entryDy=0;" edge="1" parent="1" source="6-P5FYOCv_knJDz39_xE-136" target="6-P5FYOCv_knJDz39_xE-131">
          <mxGeometry relative="1" as="geometry" />
        </mxCell>
        <mxCell id="6-P5FYOCv_knJDz39_xE-136" value="локација" style="ellipse;whiteSpace=wrap;html=1;rounded=1;" vertex="1" parent="1">
          <mxGeometry x="1493.25" y="677.5" width="130" height="50" as="geometry" />
        </mxCell>
        <mxCell id="6-P5FYOCv_knJDz39_xE-137" value="име" style="ellipse;whiteSpace=wrap;html=1;rounded=1;" vertex="1" parent="1">
          <mxGeometry x="1503.25" y="632.5" width="75" height="30" as="geometry" />
        </mxCell>
        <mxCell id="6-P5FYOCv_knJDz39_xE-138" style="edgeStyle=none;shape=connector;rounded=0;jumpStyle=none;orthogonalLoop=1;jettySize=auto;html=1;exitX=0;exitY=0.5;exitDx=0;exitDy=0;entryX=1;entryY=0.5;entryDx=0;entryDy=0;strokeColor=default;strokeWidth=1;align=center;verticalAlign=middle;fontFamily=Helvetica;fontSize=11;fontColor=default;labelBackgroundColor=default;startArrow=none;startFill=0;endArrow=none;endFill=0;" edge="1" parent="1" source="6-P5FYOCv_knJDz39_xE-137" target="6-P5FYOCv_knJDz39_xE-131">
          <mxGeometry relative="1" as="geometry" />
        </mxCell>
        <mxCell id="6-P5FYOCv_knJDz39_xE-141" value="m" style="text;html=1;align=center;verticalAlign=middle;whiteSpace=wrap;rounded=0;fontFamily=Helvetica;fontSize=11;fontColor=default;labelBackgroundColor=default;" vertex="1" parent="1">
          <mxGeometry x="1097" y="545" width="60" height="30" as="geometry" />
        </mxCell>
        <mxCell id="6-P5FYOCv_knJDz39_xE-142" value="ПАТУВАЊЕ" style="rounded=0;whiteSpace=wrap;html=1;fontFamily=Helvetica;fontSize=11;fontColor=default;labelBackgroundColor=default;" vertex="1" parent="1">
          <mxGeometry x="1052" y="647.5" width="105" height="40" as="geometry" />
        </mxCell>
        <mxCell id="6-P5FYOCv_knJDz39_xE-178" value="" style="edgeStyle=none;shape=connector;rounded=0;jumpStyle=none;orthogonalLoop=1;jettySize=auto;html=1;strokeColor=default;strokeWidth=1;align=center;verticalAlign=middle;fontFamily=Helvetica;fontSize=11;fontColor=default;labelBackgroundColor=default;startArrow=none;startFill=0;endArrow=none;endFill=0;" edge="1" parent="1" source="6-P5FYOCv_knJDz39_xE-144" target="6-P5FYOCv_knJDz39_xE-159">
          <mxGeometry relative="1" as="geometry" />
        </mxCell>
        <mxCell id="6-P5FYOCv_knJDz39_xE-144" value="оди на" style="strokeWidth=1;html=1;shape=mxgraph.flowchart.decision;whiteSpace=wrap;rounded=1;fontFamily=Helvetica;fontSize=11;fontColor=default;labelBackgroundColor=default;" vertex="1" parent="1">
          <mxGeometry x="885" y="385" width="65" height="60" as="geometry" />
        </mxCell>
        <mxCell id="6-P5FYOCv_knJDz39_xE-146" style="edgeStyle=none;shape=link;rounded=0;jumpStyle=none;orthogonalLoop=1;jettySize=auto;html=1;exitX=0;exitY=0.5;exitDx=0;exitDy=0;exitPerimeter=0;entryX=1;entryY=0.5;entryDx=0;entryDy=0;strokeColor=default;strokeWidth=1;align=center;verticalAlign=middle;fontFamily=Helvetica;fontSize=11;fontColor=default;labelBackgroundColor=default;startArrow=none;startFill=0;endArrow=none;endFill=0;" edge="1" parent="1" source="6-P5FYOCv_knJDz39_xE-145" target="6-P5FYOCv_knJDz39_xE-142">
          <mxGeometry relative="1" as="geometry" />
        </mxCell>
        <mxCell id="6-P5FYOCv_knJDz39_xE-145" value="организира" style="strokeWidth=1;html=1;shape=mxgraph.flowchart.decision;whiteSpace=wrap;rounded=1;fontFamily=Helvetica;fontSize=11;fontColor=default;labelBackgroundColor=default;" vertex="1" parent="1">
          <mxGeometry x="1212" y="640" width="80" height="55" as="geometry" />
        </mxCell>
        <mxCell id="6-P5FYOCv_knJDz39_xE-148" value="1" style="text;html=1;align=center;verticalAlign=middle;whiteSpace=wrap;rounded=0;fontFamily=Helvetica;fontSize=11;fontColor=default;labelBackgroundColor=default;" vertex="1" parent="1">
          <mxGeometry x="1307" y="672.5" width="60" height="30" as="geometry" />
        </mxCell>
        <mxCell id="6-P5FYOCv_knJDz39_xE-149" value="m" style="text;html=1;align=center;verticalAlign=middle;whiteSpace=wrap;rounded=0;fontFamily=Helvetica;fontSize=11;fontColor=default;labelBackgroundColor=default;" vertex="1" parent="1">
          <mxGeometry x="1139.5" y="672.5" width="60" height="30" as="geometry" />
        </mxCell>
        <mxCell id="6-P5FYOCv_knJDz39_xE-154" style="edgeStyle=none;shape=connector;rounded=0;jumpStyle=none;orthogonalLoop=1;jettySize=auto;html=1;exitX=0;exitY=0.5;exitDx=0;exitDy=0;exitPerimeter=0;entryX=0.75;entryY=0;entryDx=0;entryDy=0;strokeColor=default;strokeWidth=1;align=center;verticalAlign=middle;fontFamily=Helvetica;fontSize=11;fontColor=default;labelBackgroundColor=default;startArrow=none;startFill=0;endArrow=none;endFill=0;" edge="1" parent="1" source="6-P5FYOCv_knJDz39_xE-152" target="6-P5FYOCv_knJDz39_xE-95">
          <mxGeometry relative="1" as="geometry" />
        </mxCell>
        <mxCell id="6-P5FYOCv_knJDz39_xE-152" value="посета" style="strokeWidth=1;html=1;shape=mxgraph.flowchart.decision;whiteSpace=wrap;rounded=1;fontFamily=Helvetica;fontSize=11;fontColor=default;labelBackgroundColor=default;" vertex="1" parent="1">
          <mxGeometry x="927" y="640" width="80" height="55" as="geometry" />
        </mxCell>
        <mxCell id="6-P5FYOCv_knJDz39_xE-153" style="edgeStyle=none;shape=link;rounded=0;jumpStyle=none;orthogonalLoop=1;jettySize=auto;html=1;exitX=0;exitY=0.5;exitDx=0;exitDy=0;strokeColor=default;strokeWidth=1;align=center;verticalAlign=middle;fontFamily=Helvetica;fontSize=11;fontColor=default;labelBackgroundColor=default;startArrow=none;startFill=0;endArrow=none;endFill=0;entryX=1;entryY=0.5;entryDx=0;entryDy=0;entryPerimeter=0;" edge="1" parent="1" source="6-P5FYOCv_knJDz39_xE-142" target="6-P5FYOCv_knJDz39_xE-152">
          <mxGeometry relative="1" as="geometry">
            <mxPoint x="1017" y="667.5" as="targetPoint" />
          </mxGeometry>
        </mxCell>
        <mxCell id="6-P5FYOCv_knJDz39_xE-176" style="edgeStyle=none;shape=connector;rounded=0;jumpStyle=none;orthogonalLoop=1;jettySize=auto;html=1;entryX=0.5;entryY=0;entryDx=0;entryDy=0;strokeColor=default;strokeWidth=1;align=center;verticalAlign=middle;fontFamily=Helvetica;fontSize=11;fontColor=default;labelBackgroundColor=default;startArrow=none;startFill=0;endArrow=none;endFill=0;exitX=0.25;exitY=1;exitDx=0;exitDy=0;" edge="1" parent="1" source="6-P5FYOCv_knJDz39_xE-159" target="6-P5FYOCv_knJDz39_xE-161">
          <mxGeometry relative="1" as="geometry">
            <mxPoint x="1133" y="426" as="sourcePoint" />
          </mxGeometry>
        </mxCell>
        <mxCell id="6-P5FYOCv_knJDz39_xE-159" value="ИНСТАНЦА_ПАТУВАЊЕ" style="shape=ext;margin=3;double=1;whiteSpace=wrap;html=1;align=center;rounded=1;strokeColor=default;strokeWidth=1;verticalAlign=middle;fontFamily=Helvetica;fontSize=11;fontColor=default;labelBackgroundColor=default;fillColor=default;" vertex="1" parent="1">
          <mxGeometry x="1039.5" y="385" width="262.5" height="40" as="geometry" />
        </mxCell>
        <mxCell id="6-P5FYOCv_knJDz39_xE-177" style="edgeStyle=none;shape=connector;rounded=0;jumpStyle=none;orthogonalLoop=1;jettySize=auto;html=1;exitX=0.5;exitY=1;exitDx=0;exitDy=0;entryX=0.5;entryY=0;entryDx=0;entryDy=0;strokeColor=default;strokeWidth=1;align=center;verticalAlign=middle;fontFamily=Helvetica;fontSize=11;fontColor=default;labelBackgroundColor=default;startArrow=none;startFill=0;endArrow=none;endFill=0;" edge="1" parent="1" source="6-P5FYOCv_knJDz39_xE-161" target="6-P5FYOCv_knJDz39_xE-142">
          <mxGeometry relative="1" as="geometry" />
        </mxCell>
        <mxCell id="6-P5FYOCv_knJDz39_xE-161" value="креира" style="shape=rhombus;double=1;perimeter=rhombusPerimeter;whiteSpace=wrap;html=1;align=center;rounded=1;strokeColor=default;strokeWidth=1;verticalAlign=middle;fontFamily=Helvetica;fontSize=11;fontColor=default;labelBackgroundColor=default;fillColor=default;" vertex="1" parent="1">
          <mxGeometry x="1072" y="470" width="65" height="60" as="geometry" />
        </mxCell>
        <mxCell id="6-P5FYOCv_knJDz39_xE-163" value="1" style="text;html=1;align=center;verticalAlign=middle;whiteSpace=wrap;rounded=0;fontFamily=Helvetica;fontSize=11;fontColor=default;labelBackgroundColor=default;" vertex="1" parent="1">
          <mxGeometry x="1100" y="425" width="60" height="30" as="geometry" />
        </mxCell>
        <mxCell id="6-P5FYOCv_knJDz39_xE-164" style="edgeStyle=none;shape=connector;rounded=0;jumpStyle=none;orthogonalLoop=1;jettySize=auto;html=1;exitX=0.5;exitY=1;exitDx=0;exitDy=0;strokeColor=default;strokeWidth=1;align=center;verticalAlign=middle;fontFamily=Helvetica;fontSize=11;fontColor=default;labelBackgroundColor=default;startArrow=none;startFill=0;endArrow=none;endFill=0;" edge="1" parent="1" source="6-P5FYOCv_knJDz39_xE-161" target="6-P5FYOCv_knJDz39_xE-161">
          <mxGeometry relative="1" as="geometry" />
        </mxCell>
        <mxCell id="6-P5FYOCv_knJDz39_xE-166" value="" style="edgeStyle=none;shape=connector;rounded=0;jumpStyle=none;orthogonalLoop=1;jettySize=auto;html=1;strokeColor=default;strokeWidth=1;align=center;verticalAlign=middle;fontFamily=Helvetica;fontSize=11;fontColor=default;labelBackgroundColor=default;startArrow=none;startFill=0;endArrow=none;endFill=0;" edge="1" parent="1" source="6-P5FYOCv_knJDz39_xE-165" target="6-P5FYOCv_knJDz39_xE-159">
          <mxGeometry relative="1" as="geometry" />
        </mxCell>
        <mxCell id="6-P5FYOCv_knJDz39_xE-165" value="основна_цена" style="ellipse;whiteSpace=wrap;html=1;rounded=1;" vertex="1" parent="1">
          <mxGeometry x="1274.5" y="320" width="95" height="35" as="geometry" />
        </mxCell>
        <mxCell id="6-P5FYOCv_knJDz39_xE-168" value="" style="edgeStyle=none;shape=connector;rounded=0;jumpStyle=none;orthogonalLoop=1;jettySize=auto;html=1;strokeColor=default;strokeWidth=1;align=center;verticalAlign=middle;fontFamily=Helvetica;fontSize=11;fontColor=default;labelBackgroundColor=default;startArrow=none;startFill=0;endArrow=none;endFill=0;" edge="1" parent="1" source="6-P5FYOCv_knJDz39_xE-167" target="6-P5FYOCv_knJDz39_xE-159">
          <mxGeometry relative="1" as="geometry" />
        </mxCell>
        <mxCell id="6-P5FYOCv_knJDz39_xE-167" value="почетен_датум" style="ellipse;whiteSpace=wrap;html=1;rounded=1;" vertex="1" parent="1">
          <mxGeometry x="1369.5" y="385" width="95" height="35" as="geometry" />
        </mxCell>
        <mxCell id="6-P5FYOCv_knJDz39_xE-170" style="edgeStyle=none;shape=connector;rounded=0;jumpStyle=none;orthogonalLoop=1;jettySize=auto;html=1;exitX=0;exitY=0.5;exitDx=0;exitDy=0;strokeColor=default;strokeWidth=1;align=center;verticalAlign=middle;fontFamily=Helvetica;fontSize=11;fontColor=default;labelBackgroundColor=default;startArrow=none;startFill=0;endArrow=none;endFill=0;" edge="1" parent="1" source="6-P5FYOCv_knJDz39_xE-169" target="6-P5FYOCv_knJDz39_xE-159">
          <mxGeometry relative="1" as="geometry" />
        </mxCell>
        <mxCell id="6-P5FYOCv_knJDz39_xE-169" value="краен&lt;span style=&quot;color: rgba(0, 0, 0, 0); font-family: monospace; font-size: 0px; text-align: start; text-wrap: nowrap;&quot;&gt;%3CmxGraphModel%3E%3Croot%3E%3CmxCell%20id%3D%220%22%2F%3E%3CmxCell%20id%3D%221%22%20parent%3D%220%22%2F%3E%3CmxCell%20id%3D%222%22%20value%3D%22%D0%BF%D0%BE%D1%87%D0%B5%D1%82%D0%B5%D0%BD_%D0%B4%D0%B0%D1%82%D1%83%D0%BC%22%20style%3D%22ellipse%3BwhiteSpace%3Dwrap%3Bhtml%3D1%3Brounded%3D1%3B%22%20vertex%3D%221%22%20parent%3D%221%22%3E%3CmxGeometry%20x%3D%221230%22%20y%3D%22730%22%20width%3D%2295%22%20height%3D%2235%22%20as%3D%22geometry%22%2F%3E%3C%2FmxCell%3E%3C%2Froot%3E%3C%2FmxGraphModel%3E&lt;/span&gt;_датум" style="ellipse;whiteSpace=wrap;html=1;rounded=1;" vertex="1" parent="1">
          <mxGeometry x="1310.75" y="455" width="95" height="35" as="geometry" />
        </mxCell>
        <mxCell id="6-P5FYOCv_knJDz39_xE-180" value="m" style="text;html=1;align=center;verticalAlign=middle;whiteSpace=wrap;rounded=0;fontFamily=Helvetica;fontSize=11;fontColor=default;labelBackgroundColor=default;" vertex="1" parent="1">
          <mxGeometry x="987.5" y="415" width="60" height="30" as="geometry" />
        </mxCell>
        <mxCell id="6-P5FYOCv_knJDz39_xE-182" value="1" style="text;html=1;align=center;verticalAlign=middle;whiteSpace=wrap;rounded=0;fontFamily=Helvetica;fontSize=11;fontColor=default;labelBackgroundColor=default;" vertex="1" parent="1">
          <mxGeometry x="705" y="430" width="60" height="30" as="geometry" />
        </mxCell>
        <mxCell id="6-P5FYOCv_knJDz39_xE-184" value="факултативно&lt;div&gt;оди на&lt;/div&gt;" style="strokeWidth=1;html=1;shape=mxgraph.flowchart.decision;whiteSpace=wrap;rounded=1;fontFamily=Helvetica;fontSize=11;fontColor=default;labelBackgroundColor=default;" vertex="1" parent="1">
          <mxGeometry x="457.5" y="545" width="132.5" height="75" as="geometry" />
        </mxCell>
        <mxCell id="6-P5FYOCv_knJDz39_xE-186" style="edgeStyle=none;shape=connector;rounded=0;jumpStyle=none;orthogonalLoop=1;jettySize=auto;html=1;entryX=0.212;entryY=-0.055;entryDx=0;entryDy=0;entryPerimeter=0;strokeColor=default;strokeWidth=1;align=center;verticalAlign=middle;fontFamily=Helvetica;fontSize=11;fontColor=default;labelBackgroundColor=default;startArrow=none;startFill=0;endArrow=none;endFill=0;exitX=0.5;exitY=1;exitDx=0;exitDy=0;exitPerimeter=0;" edge="1" parent="1" source="6-P5FYOCv_knJDz39_xE-184" target="6-P5FYOCv_knJDz39_xE-95">
          <mxGeometry relative="1" as="geometry">
            <mxPoint x="900" y="560" as="sourcePoint" />
          </mxGeometry>
        </mxCell>
        <mxCell id="6-P5FYOCv_knJDz39_xE-193" style="edgeStyle=none;shape=connector;rounded=0;jumpStyle=none;orthogonalLoop=1;jettySize=auto;html=1;exitX=0.5;exitY=1;exitDx=0;exitDy=0;strokeColor=default;strokeWidth=1;align=center;verticalAlign=middle;fontFamily=Helvetica;fontSize=11;fontColor=default;labelBackgroundColor=default;startArrow=none;startFill=0;endArrow=none;endFill=0;entryX=0.332;entryY=0.112;entryDx=0;entryDy=0;entryPerimeter=0;" edge="1" parent="1" source="6-P5FYOCv_knJDz39_xE-190" target="6-P5FYOCv_knJDz39_xE-184">
          <mxGeometry relative="1" as="geometry" />
        </mxCell>
        <mxCell id="6-P5FYOCv_knJDz39_xE-190" value=" цена" style="ellipse;whiteSpace=wrap;html=1;rounded=1;" vertex="1" parent="1">
          <mxGeometry x="440" y="480" width="38" height="20" as="geometry" />
        </mxCell>
        <mxCell id="6-P5FYOCv_knJDz39_xE-191" value=" датум" style="ellipse;whiteSpace=wrap;html=1;rounded=1;" vertex="1" parent="1">
          <mxGeometry x="390" y="510" width="50" height="20" as="geometry" />
        </mxCell>
        <mxCell id="6-P5FYOCv_knJDz39_xE-192" style="edgeStyle=none;shape=connector;rounded=0;jumpStyle=none;orthogonalLoop=1;jettySize=auto;html=1;exitX=0.5;exitY=1;exitDx=0;exitDy=0;entryX=0.229;entryY=0.249;entryDx=0;entryDy=0;entryPerimeter=0;strokeColor=default;strokeWidth=1;align=center;verticalAlign=middle;fontFamily=Helvetica;fontSize=11;fontColor=default;labelBackgroundColor=default;startArrow=none;startFill=0;endArrow=none;endFill=0;" edge="1" parent="1" source="6-P5FYOCv_knJDz39_xE-191" target="6-P5FYOCv_knJDz39_xE-184">
          <mxGeometry relative="1" as="geometry" />
        </mxCell>
        <mxCell id="6-P5FYOCv_knJDz39_xE-196" style="edgeStyle=none;shape=connector;rounded=0;jumpStyle=none;orthogonalLoop=1;jettySize=auto;html=1;exitX=0;exitY=1;exitDx=0;exitDy=0;entryX=0.5;entryY=0;entryDx=0;entryDy=0;entryPerimeter=0;strokeColor=default;strokeWidth=1;align=center;verticalAlign=middle;fontFamily=Helvetica;fontSize=11;fontColor=default;labelBackgroundColor=default;startArrow=none;startFill=0;endArrow=none;endFill=0;" edge="1" parent="1" source="6-P5FYOCv_knJDz39_xE-1" target="6-P5FYOCv_knJDz39_xE-184">
          <mxGeometry relative="1" as="geometry" />
        </mxCell>
        <mxCell id="6-P5FYOCv_knJDz39_xE-197" value="m" style="text;html=1;align=center;verticalAlign=middle;whiteSpace=wrap;rounded=0;fontFamily=Helvetica;fontSize=11;fontColor=default;labelBackgroundColor=default;" vertex="1" parent="1">
          <mxGeometry x="567.5" y="430" width="60" height="30" as="geometry" />
        </mxCell>
        <mxCell id="6-P5FYOCv_knJDz39_xE-198" value="n" style="text;html=1;align=center;verticalAlign=middle;whiteSpace=wrap;rounded=0;fontFamily=Helvetica;fontSize=11;fontColor=default;labelBackgroundColor=default;" vertex="1" parent="1">
          <mxGeometry x="530" y="710" width="60" height="30" as="geometry" />
        </mxCell>
      </root>
    </mxGraphModel>
  </diagram>
</mxfile>
